<svg xmlns="http://www.w3.org/2000/svg" xmlns:xlink="http://www.w3.org/1999/xlink" version="1.1" width="1000" height="1000" viewBox="0 0 1000 1000" xml:space="preserve">
<desc>Created with Fabric.js 3.5.0</desc>
<defs>
</defs>
<rect x="0" y="0" width="100%" height="100%" fill="#ffffff"/>
<g transform="matrix(27.7885 0 0 28.6478 500.0008 597.6354)" id="834761">
<g style="" vector-effect="non-scaling-stroke">
		<g transform="matrix(1 0 0 1 0 -3.6288)">
<rect style="stroke: none; stroke-width: 1; stroke-dasharray: none; stroke-linecap: butt; stroke-dashoffset: 0; stroke-linejoin: miter; stroke-miterlimit: 4; is-custom-font: none; font-file-url: none; fill: rgb(253,112,128); fill-rule: nonzero; opacity: 1;" x="-16" y="-15.483" rx="15.483" ry="15.483" width="32" height="30.966"/>
</g>
		<g transform="matrix(1 0 0 -1 0 -5.1772)">
<rect style="stroke: none; stroke-width: 1; stroke-dasharray: none; stroke-linecap: butt; stroke-dashoffset: 0; stroke-linejoin: miter; stroke-miterlimit: 4; is-custom-font: none; font-file-url: none; fill: rgb(253,112,128); fill-rule: nonzero; opacity: 1;" x="-7.2" y="-6.96735" rx="6.96736" ry="6.96736" width="14.4" height="13.9347"/>
</g>
		<g transform="matrix(1 0 0 1 0 -2.4676)">
<path style="stroke: none; stroke-width: 1; stroke-dasharray: none; stroke-linecap: butt; stroke-dashoffset: 0; stroke-linejoin: miter; stroke-miterlimit: 4; is-custom-font: none; font-file-url: none; fill: rgb(255,255,255); fill-rule: evenodd; opacity: 1;" transform=" translate(-20, -17.5324)" d="M 20 24.1126 C 24.5323 24.1126 28 21.0639 28 17.5324 C 28 14.0008 24.5323 10.9521 20 10.9521 C 15.4676 10.9521 12 14.0008 12 17.5324 C 12 21.0639 15.4676 24.1126 20 24.1126 Z M 20 24.8868 C 24.8601 24.8868 28.8 21.5941 28.8 17.5324 C 28.8 13.4706 24.8601 10.1779 20 10.1779 C 15.1398 10.1779 11.2 13.4706 11.2 17.5324 C 11.2 21.5941 15.1398 24.8868 20 24.8868 Z" stroke-linecap="round"/>
</g>
		<g transform="matrix(1 0 0 -1 -0.0001 -10.2092)">
<rect style="stroke: none; stroke-width: 1; stroke-dasharray: none; stroke-linecap: butt; stroke-dashoffset: 0; stroke-linejoin: miter; stroke-miterlimit: 4; is-custom-font: none; font-file-url: none; fill: rgb(253,112,128); fill-rule: nonzero; opacity: 1;" x="-5.6" y="-3.4837" rx="3.48368" ry="3.48368" width="11.2" height="6.9674"/>
</g>
		<g transform="matrix(1 0 0 1 0 -8.853)">
<path style="stroke: none; stroke-width: 1; stroke-dasharray: none; stroke-linecap: butt; stroke-dashoffset: 0; stroke-linejoin: miter; stroke-miterlimit: 4; is-custom-font: none; font-file-url: none; fill: rgb(255,255,255); fill-rule: nonzero; opacity: 1;" transform=" translate(-20, -11.147)" d="M 24.6498 9.00001 C 23.6225 6.38395 20.2973 7.56117 20 8.8692 C 19.5674 7.48269 16.3233 6.43627 15.3501 9.00001 C 14.2417 11.8777 19.6215 14.4414 20 14.86 C 20.3784 14.5199 25.7582 11.8254 24.6498 9.00001 Z" stroke-linecap="round"/>
</g>
</g>
</g>
</svg>